<svg width="211" height="51" viewBox="0 0 211 51" fill="none" xmlns="http://www.w3.org/2000/svg">
<mask id="mask0_895_108" style="mask-type:alpha" maskUnits="userSpaceOnUse" x="97" y="0" width="73" height="25">
<path d="M165.936 17.0483C164.413 17.227 133.29 13.4857 108.388 0.672166C108.245 0.598897 108.088 0.560547 107.928 0.560547H98.995C98.3515 0.560547 97.8751 1.15871 98.019 1.78586L101.665 17.671C101.753 18.0554 102.059 18.3519 102.445 18.4309C116.632 21.3286 130.15 26.5785 149.395 24.0376C156.251 23.1324 163.614 20.5392 169.312 18.5201C170.401 18.1342 170.118 16.617 168.968 16.7272C167.562 16.862 166.412 16.9924 165.936 17.0483Z" fill="#D9D9D9"/>
</mask>
<g mask="url(#mask0_895_108)">
<path d="M110.296 6.25434C119.879 15.2723 136.546 21.1703 149.624 21.1703C158.785 21.1703 161.33 21.1703 163.875 20.4534C163.892 20.4485 163.909 20.4436 163.926 20.4389C164.642 20.236 164.538 20.2376 163.926 20.4389C162.487 20.9124 158.237 22.4906 155.223 25.113C152.765 27.2514 151.431 31.4409 151.051 32.8192C150.755 33.8945 150.438 37.2996 150.438 38.0164C150.438 39.2709 150.332 43.1362 151.729 45.5434C152.463 46.8092 153.572 47.9404 155.223 48.7693C155.73 49.024 155.549 49.9616 154.983 49.9126C152.388 49.6879 149.311 49.3206 147.843 48.7693C146.087 48.1097 144.001 47.0299 143.797 44.2889C143.687 42.8139 144.756 39.2962 146.087 36.2243C147.887 32.0718 150.438 28.1845 153.031 25.484C153.694 24.7931 153.222 23.4672 152.265 23.4208C149.992 23.3104 147.366 23.0891 144.56 22.7832C140.373 22.3268 137.999 22.0513 134.102 21.1703C125.636 19.2566 120.895 18.482 114.279 15.6146C110.1 13.8037 105.881 11.7534 108.78 6.44747C109.084 5.89174 109.835 5.82036 110.296 6.25434Z" fill="#4F7937"/>
<path fill-rule="evenodd" clip-rule="evenodd" d="M108.634 6.3675C108.997 5.70277 109.881 5.63456 110.41 6.13284C119.959 15.1183 136.584 21.0034 149.624 21.0034C158.798 21.0034 161.313 21.0017 163.829 20.2928L163.877 20.2793C164.03 20.2291 164.151 20.1912 164.237 20.1656C164.28 20.1527 164.314 20.1428 164.34 20.1359C164.352 20.1325 164.363 20.1296 164.373 20.1274C164.377 20.1264 164.382 20.1252 164.388 20.1241C164.389 20.1239 164.404 20.1207 164.421 20.1205C164.426 20.1204 164.438 20.1204 164.453 20.1231C164.459 20.1241 164.51 20.1317 164.551 20.1785C164.576 20.2081 164.592 20.2474 164.591 20.2902C164.591 20.3285 164.577 20.357 164.568 20.3724C164.552 20.4006 164.531 20.4164 164.526 20.42C164.513 20.4302 164.501 20.4363 164.498 20.4377C164.493 20.4401 164.489 20.442 164.486 20.4431C164.477 20.4472 164.466 20.4512 164.456 20.4544C164.436 20.4616 164.405 20.4716 164.363 20.4844C164.281 20.5101 164.153 20.5481 163.975 20.5986C162.537 21.072 158.318 22.6415 155.332 25.2389C154.129 26.2854 153.193 27.8426 152.509 29.3213C151.826 30.7972 151.4 32.1798 151.212 32.8636C151.068 33.386 150.916 34.4923 150.799 35.5702C150.683 36.6462 150.605 37.6683 150.605 38.0165C150.605 38.0909 150.605 38.1741 150.604 38.2655C150.601 38.9486 150.596 40.0837 150.725 41.3304C150.873 42.7469 151.192 44.2868 151.873 45.4597C152.591 46.6979 153.676 47.8062 155.297 48.6202C155.642 48.7929 155.73 49.1828 155.669 49.488C155.607 49.7933 155.37 50.1137 154.969 50.079C153.669 49.9664 152.248 49.8181 150.966 49.6286C149.688 49.4396 148.536 49.2079 147.784 48.9255C146.021 48.2634 143.843 47.1497 143.63 44.3014C143.573 43.5307 143.821 42.2564 144.241 40.809C144.663 39.3537 145.266 37.6996 145.934 36.1579C147.74 31.9896 150.302 28.085 152.911 25.3684C153.188 25.079 153.237 24.6461 153.099 24.268C152.961 23.8905 152.652 23.6067 152.257 23.5875C149.98 23.4769 147.35 23.2552 144.542 22.9491C140.354 22.4926 137.972 22.2163 134.065 21.3331C132.714 21.0277 131.457 20.7512 130.272 20.4905C124.039 19.1191 119.787 18.1837 114.212 15.7678C112.131 14.8659 109.993 13.8872 108.749 12.451C108.122 11.7268 107.718 10.8824 107.662 9.87281C107.607 8.86608 107.899 7.71201 108.634 6.3675ZM161.84 21.0392C159.611 21.3372 156.457 21.3372 149.688 21.3372H149.624C136.509 21.3372 119.8 15.4265 110.182 6.37592C109.789 6.00625 109.171 6.0808 108.927 6.52753C108.212 7.83596 107.944 8.9279 107.995 9.85448C108.046 10.7782 108.414 11.5544 109.001 12.2324C110.187 13.6006 112.247 14.5525 114.345 15.4615C119.888 17.8638 124.106 18.792 130.338 20.1631C131.524 20.4241 132.784 20.7012 134.139 21.0075C138.027 21.8864 140.392 22.161 144.578 22.6173C147.382 22.9229 150.004 23.144 152.273 23.2541C152.835 23.2814 153.241 23.6838 153.412 24.1535C153.584 24.6227 153.537 25.1982 153.151 25.5996C150.574 28.284 148.033 32.154 146.24 36.2907C145.577 37.8209 144.979 39.4617 144.562 40.9019C144.142 42.3501 143.911 43.5722 143.963 44.2765C144.16 46.9101 146.152 47.9561 147.902 48.6131C148.618 48.882 149.739 49.1097 151.015 49.2984C152.287 49.4865 153.701 49.6342 154.997 49.7464C155.162 49.7607 155.298 49.6368 155.342 49.4218C155.385 49.2067 155.311 49.0005 155.148 48.9185C153.467 48.0747 152.335 46.9205 151.584 45.6272C150.868 44.3928 150.542 42.7965 150.393 41.3649C150.262 40.0989 150.267 38.9455 150.27 38.2631C150.271 38.1722 150.271 38.0897 150.271 38.0164C150.271 37.6478 150.351 36.6089 150.468 35.5343C150.584 34.4616 150.738 33.3278 150.89 32.7749C151.082 32.0804 151.513 30.6791 152.206 29.1811C152.898 27.6859 153.858 26.0791 155.113 24.9871C157.213 23.1605 159.902 21.8387 161.84 21.0392Z" fill="#4F7937"/>
<path d="M130.816 22.0469C125.933 21.2297 113.92 16.2707 109.958 13.2836C109.319 12.8013 109.954 12.3355 110.773 12.6468L127.681 19.0707C127.9 19.1538 128.133 19.2469 128.377 19.2921C130.729 19.7296 144.111 21.2917 152.023 22.1945C153.232 22.3324 153.058 23.4096 151.805 23.4689C145.723 23.7567 138.176 23.2787 130.816 22.0469Z" fill="#4F7937"/>
<path fill-rule="evenodd" clip-rule="evenodd" d="M152.65 22.8613C152.616 23.0676 152.363 23.3025 151.817 23.3283C145.756 23.6151 138.227 23.1387 130.88 21.9092C128.465 21.505 124.259 20.069 120.15 18.354C116.043 16.6395 112.066 14.6597 110.102 13.1785C109.958 13.0702 109.901 12.9737 109.89 12.9028C109.879 12.8353 109.907 12.7899 109.947 12.7596C110.033 12.6937 110.291 12.6294 110.672 12.7742L127.58 19.198C127.597 19.2045 127.614 19.2111 127.632 19.2178C127.833 19.2946 128.066 19.3837 128.311 19.4292C130.673 19.8686 144.068 21.4319 151.973 22.334C152.504 22.3945 152.686 22.6494 152.65 22.8613ZM153.026 22.8611C153.089 22.4852 152.753 22.1325 152.076 22.0552C144.157 21.1515 130.786 19.5907 128.445 19.1552C128.239 19.117 128.039 19.0405 127.83 18.961C127.815 18.9552 127.799 18.9494 127.784 18.9435L110.876 12.5197C110.438 12.353 109.969 12.3659 109.693 12.5757C109.551 12.6832 109.49 12.8253 109.514 12.9711C109.537 13.1134 109.641 13.256 109.817 13.3888C111.814 14.8948 115.824 16.888 119.935 18.6041C124.045 20.3196 128.287 21.7717 130.754 22.1847C138.128 23.4187 145.692 23.8984 151.794 23.6096C152.501 23.5761 152.962 23.2428 153.026 22.8611Z" fill="#4F7937"/>
</g>
<path d="M34.8276 35.9408C27.752 37.8572 14.4267 42.6379 4.397 43.0379C2.00077 43.1335 -0.723948 44.3816 0.447701 46.474C0.874487 47.2362 1.60805 48.0758 2.78474 48.9583C7.45766 52.463 19.14 48.7914 23.9798 46.9556C28.8196 45.1198 39.1668 41.4482 45.1748 37.4429C51.1829 33.4375 59.0267 32.4362 64.2003 34.4388C66.3698 35.2786 68.5394 36.4415 66.8705 38.6111C66.2286 39.4455 63.032 41.4482 64.534 43.9516C65.4056 45.4042 67.8522 44.9984 70.0344 44.9459C70.3164 44.9391 70.5312 44.936 70.7106 44.9279C71.376 44.898 71.2771 44.4779 70.8688 43.9516C69.3145 41.9478 71.7104 41.1144 73.3793 37.4429C82.7251 22.4227 42.8384 33.7713 34.8276 35.9408Z" fill="#4F7937"/>
<path fill-rule="evenodd" clip-rule="evenodd" d="M35.8458 35.8364C35.483 35.9354 35.1569 36.0244 34.8712 36.1018C33.2878 36.5307 31.3904 37.1033 29.2834 37.7393C29.0405 37.8126 28.7948 37.8867 28.5464 37.9616C26.1453 38.6856 23.5009 39.4759 20.7638 40.2189C15.2918 41.7044 9.43807 43.0038 4.40359 43.2046C3.22519 43.2516 1.9797 43.5825 1.18021 44.1436C0.781873 44.4232 0.506492 44.7511 0.392843 45.1172C0.280688 45.4785 0.318416 45.9016 0.593252 46.3924C1.00586 47.1293 1.72152 47.9522 2.88481 48.8247C4.01644 49.6734 5.58585 50.0965 7.39812 50.2154C9.2082 50.3342 11.2436 50.1485 13.2912 49.7951C17.3862 49.0883 21.5057 47.7154 23.9205 46.7995C24.4231 46.6088 24.9844 46.3986 25.5935 46.1705C30.8637 44.1969 39.7146 40.8823 45.0822 37.3039C51.1271 33.274 59.0276 32.2575 64.2605 34.2831C65.3419 34.7017 66.4633 35.2141 67.0984 35.9141C67.4206 36.2693 67.6263 36.6822 67.6293 37.1609C67.6322 37.6371 67.4341 38.1519 67.0027 38.7127C66.866 38.8905 66.6234 39.1155 66.35 39.3692C66.2808 39.4334 66.2096 39.4995 66.1376 39.5671C65.7725 39.91 65.3684 40.3088 65.0315 40.7558C64.6944 41.2032 64.4316 41.69 64.3394 42.2075C64.2481 42.7202 64.3221 43.2739 64.6771 43.8656C65.0687 44.5184 65.8238 44.774 66.805 44.8466C67.4694 44.8958 68.2017 44.8598 68.9494 44.8231C69.3081 44.8054 69.6703 44.7876 70.0303 44.779C70.1092 44.7771 70.1824 44.7754 70.2508 44.7739C70.4293 44.77 70.5751 44.7668 70.703 44.7611C70.856 44.7542 70.9395 44.7253 70.981 44.6977C71.0128 44.6766 71.024 44.6548 71.0256 44.6187C71.0276 44.5718 71.0111 44.4986 70.9603 44.3958C70.9107 44.2955 70.8351 44.1803 70.7369 44.0538C70.3315 43.5311 70.168 43.0633 70.2042 42.5927C70.2398 42.1305 70.4666 41.6936 70.7765 41.2298C70.9422 40.9819 71.1334 40.7231 71.3404 40.443C71.9181 39.6611 72.6183 38.7135 73.2273 37.3737L73.2318 37.3638L73.2375 37.3546C74.3983 35.4891 74.7707 34.0687 74.5705 33.0078C74.373 31.9609 73.6072 31.2163 72.3631 30.7214C71.1157 30.2253 69.4118 29.9919 67.398 29.9617C65.3869 29.9315 63.0797 30.1041 60.6329 30.4112C51.5399 31.5527 40.5743 34.5458 35.8458 35.8364ZM73.5266 37.5217C74.698 35.6365 75.1217 34.1288 74.8985 32.9459C74.6723 31.7468 73.7927 30.9308 72.4865 30.4113C71.1836 29.8931 69.4323 29.6584 67.403 29.6279C65.3709 29.5975 63.047 29.7718 60.5913 30.08C51.473 31.2247 40.485 34.2241 35.7588 35.5142C35.3957 35.6133 35.0695 35.7023 34.784 35.7797C33.1956 36.2098 31.2933 36.784 29.1876 37.4195C28.9444 37.4929 28.6985 37.5671 28.45 37.6421C26.0492 38.366 23.4087 39.1551 20.6763 39.8968C15.2093 41.3809 9.38553 42.6718 4.39029 42.871C3.17246 42.9196 1.85747 43.2605 0.988456 43.8704C0.552539 44.1764 0.216659 44.5589 0.0740668 45.0183C-0.0700191 45.4824 -0.00896943 46.0001 0.30202 46.5555C0.74298 47.343 1.49445 48.1991 2.68454 49.0917C3.88938 49.9953 5.5326 50.4275 7.37627 50.5485C9.22213 50.6696 11.2859 50.4799 13.348 50.124C17.4723 49.4122 21.614 48.0314 24.0389 47.1115C24.5397 46.9216 25.1 46.7118 25.709 46.4838C30.9723 44.5131 39.8644 41.1836 45.2673 37.5816C51.2386 33.6008 59.0257 32.6147 64.14 34.5944C65.2281 35.0156 66.2762 35.5046 66.8511 36.1383C67.1338 36.45 67.2932 36.7871 67.2955 37.1629C67.2978 37.5411 67.1412 37.9853 66.7381 38.5092C66.6202 38.6626 66.407 38.8606 66.1374 39.111C66.0651 39.1781 65.9887 39.249 65.9091 39.3238C65.5412 39.6693 65.1198 40.0841 64.7649 40.555C64.4104 41.0255 64.1156 41.5609 64.0108 42.149C63.9052 42.742 63.9949 43.3773 64.3909 44.0373C64.8708 44.8372 65.7748 45.105 66.7803 45.1795C67.4653 45.2302 68.2336 45.1926 68.9931 45.1554C69.3465 45.138 69.698 45.1208 70.0383 45.1126C70.1146 45.1108 70.1864 45.1092 70.2541 45.1077C70.4344 45.1038 70.5859 45.1005 70.718 45.0945C70.8977 45.0864 71.0515 45.0516 71.1658 44.9756C71.2899 44.8931 71.3532 44.7714 71.3591 44.6329C71.3645 44.5053 71.3213 44.3729 71.2595 44.2479C71.1965 44.1205 71.1066 43.9858 71.0007 43.8492C70.6289 43.3699 70.509 42.9821 70.537 42.6183C70.5657 42.2459 70.7507 41.8692 71.054 41.4153C71.2081 41.1847 71.3913 40.9369 71.5927 40.6643C72.1721 39.8802 72.9026 38.8916 73.5266 37.5217Z" fill="#4F7937"/>
<path d="M72.7116 26.4282C64.7009 30.2666 55.8557 29.766 53.6861 20.7539C52.9988 17.8988 52.5156 15.3944 52.1827 13.4107C51.6749 10.3852 51.5166 8.57091 51.5166 8.57091C51.5166 8.57091 52.4666 11.4453 54.6085 14.579C58.0731 19.6476 64.6563 25.3948 75.3818 20.7539C84.5289 16.796 90.7688 14.0362 100.575 9.61377C103.38 8.34873 105.248 7.52762 107.751 6.35937C107.863 6.3074 108.144 6.23278 108.457 6.1586C108.64 6.09348 108.796 6.04806 108.92 6.02557C110.383 5.75955 109.305 5.95743 108.457 6.1586C106.155 6.97735 99.547 10.9101 98.4057 11.5329C81.4303 20.7965 80.1802 22.8494 72.7116 26.4282Z" fill="#4F7937"/>
<path fill-rule="evenodd" clip-rule="evenodd" d="M108.89 5.86128C108.755 5.88571 108.593 5.93333 108.41 5.99822C108.256 6.03486 108.108 6.07187 107.984 6.10647C107.861 6.14072 107.751 6.17553 107.681 6.20805C105.863 7.05618 104.382 7.72098 102.631 8.50636C101.972 8.80223 101.275 9.11521 100.507 9.46155C90.7012 13.8837 84.4621 16.6431 75.3159 20.6006C69.9916 22.9044 65.7127 22.6246 62.3393 21.1544C58.9593 19.6814 56.4693 17.005 54.7466 14.4847C53.6823 12.9277 52.9139 11.4345 52.4115 10.3306C52.1604 9.7788 51.976 9.32467 51.8545 9.00897C51.7938 8.85114 51.7488 8.72794 51.7191 8.64448C51.7042 8.60275 51.6932 8.57096 51.6859 8.54974L51.6778 8.52592L51.6759 8.52011L51.6753 8.51843L51.3506 8.58533L51.5169 8.57082C51.3506 8.58533 51.3506 8.5853 51.3506 8.58533L51.3511 8.59097L51.3526 8.60714C51.3539 8.6214 51.3559 8.64261 51.3585 8.67061C51.3639 8.72661 51.3721 8.80979 51.3836 8.91897C51.4064 9.13733 51.4422 9.45971 51.4939 9.87668C51.5972 10.7106 51.764 11.9229 52.0184 13.4383C52.3519 15.4253 52.8358 17.9335 53.5242 20.7929C54.6234 25.3591 57.4247 27.7868 60.9726 28.5728C64.5056 29.3556 68.759 28.5072 72.784 26.5786C76.3057 24.8911 78.4501 23.5408 81.4946 21.6238C81.6869 21.5027 81.8827 21.3794 82.0828 21.2536C85.4486 19.1364 90.002 16.3091 98.4859 11.6794C98.7198 11.5517 99.1871 11.2829 99.8006 10.9299C100.679 10.4246 101.856 9.74698 103.077 9.06485C105.159 7.90206 107.367 6.7253 108.504 6.31879C108.847 6.2377 109.225 6.15747 109.458 6.10818C109.51 6.0971 109.555 6.08758 109.59 6.07997L109.593 6.0794C109.633 6.07074 109.675 6.06184 109.691 6.0564C109.694 6.05568 109.699 6.05373 109.707 6.05065C109.71 6.0492 109.717 6.04595 109.726 6.04077L109.727 6.04054C109.731 6.03796 109.759 6.02198 109.78 5.98964C109.792 5.96868 109.807 5.91257 109.807 5.87825C109.799 5.84261 109.767 5.78713 109.747 5.76773C109.712 5.73893 109.674 5.73318 109.669 5.73244C109.652 5.72947 109.637 5.73 109.635 5.73009C109.623 5.73049 109.611 5.7322 109.608 5.73269C109.596 5.73436 109.578 5.73735 109.556 5.74127C109.463 5.75716 109.255 5.79488 108.89 5.86128ZM51.8234 9.82156C51.9066 10.0181 52.0012 10.2348 52.1077 10.4688C52.6159 11.5856 53.3934 13.0964 54.4711 14.673C56.213 17.2215 58.7468 19.9529 62.206 21.4604C65.6716 22.9708 70.0471 23.2441 75.4484 20.907C84.5964 16.9487 90.837 14.1886 100.644 9.76582C101.41 9.4201 102.107 9.10744 102.766 8.81173C102.904 8.7499 103.04 8.68882 103.175 8.62832C103.088 8.67672 103.001 8.72512 102.915 8.77346C101.683 9.46179 100.508 10.1376 99.6343 10.6406C99.0248 10.9913 98.5613 11.258 98.326 11.3864C89.8346 16.0202 85.2752 18.8512 81.905 20.971C81.7057 21.0964 81.5105 21.2193 81.3189 21.3399C78.2738 23.2574 76.1438 24.5985 72.6398 26.2776C68.6541 28.1874 64.4795 29.0079 61.0448 28.247C57.6251 27.4893 54.919 25.1606 53.8487 20.7147C53.1624 17.8639 52.6799 15.3634 52.3475 13.383C52.0941 11.8728 51.9279 10.6652 51.8251 9.83564C51.8245 9.83093 51.824 9.82624 51.8234 9.82156Z" fill="#4F7937"/>
<path d="M64.5571 11.78C64.9761 7.34652 72.0991 4.96652 77.9033 3.3791C75.8984 4.11942 74.142 4.90744 71.9945 6.33874C70.8928 7.07298 69.8694 7.83141 69.0323 8.55893C68.6729 8.87123 69.0125 9.34339 69.4633 9.19042C70.5991 8.80505 72.1005 8.68422 73.3892 8.66594C74.8223 8.64562 75.7823 10.0157 75.2961 11.3639C74.55 13.4326 73.3516 16.0558 71.949 16.5244C69.5747 17.3177 64.1381 16.2134 64.5571 11.78Z" fill="#4F7937"/>
<path fill-rule="evenodd" clip-rule="evenodd" d="M69.1329 6.36454C71.7091 5.00769 74.9564 4.01194 77.8591 3.21805L77.9609 3.53559C75.9647 4.27271 74.2208 5.05533 72.0869 6.47754C70.9892 7.20916 69.9718 7.96329 69.1416 8.68482C69.0781 8.74 69.0554 8.79283 69.0499 8.83326C69.0443 8.87454 69.0547 8.91637 69.0807 8.95354C69.1317 9.02655 69.2497 9.08656 69.4096 9.03231C70.5711 8.63817 72.0943 8.51733 73.3867 8.499C74.9385 8.47699 75.978 9.96461 75.453 11.4205C75.0785 12.4589 74.5883 13.6427 74.0127 14.6283C73.7249 15.1211 73.4132 15.5689 73.0807 15.9251C72.7491 16.2803 72.3886 16.5534 72.0018 16.6826C70.7701 17.0942 68.7736 17.0105 67.1362 16.264C66.3142 15.8892 65.5726 15.3429 65.0635 14.5972C64.5527 13.849 64.2826 12.9095 64.3909 11.7642C64.609 9.45662 66.5663 7.71633 69.1329 6.36454ZM69.2884 6.65986C66.7377 8.00328 64.9241 9.6697 64.7232 11.7956C64.6219 12.8669 64.8743 13.728 65.3392 14.409C65.8058 15.0925 66.4932 15.604 67.2747 15.9603C68.8444 16.6759 70.7534 16.7478 71.896 16.366C72.2104 16.261 72.5257 16.0304 72.8367 15.6973C73.1466 15.3653 73.4441 14.94 73.7245 14.46C74.2853 13.4997 74.7674 12.3375 75.139 11.3072C75.5864 10.0667 74.7057 8.8141 73.3914 8.83274C72.1064 8.85097 70.6268 8.97177 69.5168 9.34839C69.2259 9.44711 68.9487 9.34752 68.807 9.14462C68.7366 9.04384 68.7014 8.91862 68.7191 8.78832C68.7369 8.65716 68.8065 8.53386 68.9227 8.43289C69.7666 7.69938 70.7962 6.93666 71.9018 6.19979C73.0489 5.43531 74.0854 4.85307 75.1066 4.36381C73.0625 4.9995 71.0189 5.74842 69.2884 6.65986Z" fill="#4F7937"/>
<path d="M104.486 33.8791C103.84 33.8791 103.238 33.7915 102.68 33.6164C102.133 33.4303 101.651 33.1566 101.235 32.7954C100.83 32.4342 100.507 31.9799 100.266 31.4326C100.036 30.8852 99.9219 30.2449 99.9219 29.5115C99.9219 28.789 100.036 28.1705 100.266 27.656C100.507 27.1306 100.819 26.7037 101.202 26.3753C101.585 26.036 102.023 25.7897 102.516 25.6364C103.008 25.4722 103.512 25.3901 104.026 25.3901C104.607 25.3901 105.132 25.4777 105.603 25.6529C106.084 25.828 106.495 26.0688 106.834 26.3753C107.184 26.6818 107.453 27.0485 107.639 27.4754C107.836 27.9023 107.934 28.3676 107.934 28.8711C107.934 29.2433 107.83 29.5279 107.622 29.7249C107.414 29.922 107.124 30.0478 106.752 30.1026L102.696 30.7101C102.817 31.0713 103.063 31.345 103.435 31.5311C103.807 31.7062 104.234 31.7938 104.716 31.7938C105.165 31.7938 105.586 31.7391 105.98 31.6296C106.385 31.5092 106.714 31.3724 106.966 31.2191C107.141 31.3286 107.288 31.4818 107.409 31.6789C107.529 31.8759 107.589 32.0839 107.589 32.3028C107.589 32.7954 107.36 33.1621 106.9 33.4029C106.55 33.589 106.155 33.7149 105.718 33.7806C105.28 33.8462 104.869 33.8791 104.486 33.8791ZM104.026 27.4262C103.764 27.4262 103.534 27.47 103.337 27.5575C103.151 27.6451 102.997 27.76 102.877 27.9023C102.757 28.0337 102.664 28.1869 102.598 28.3621C102.543 28.5263 102.51 28.696 102.499 28.8711L105.307 28.4114C105.274 28.1924 105.154 27.9735 104.946 27.7546C104.738 27.5356 104.431 27.4262 104.026 27.4262Z" fill="#4F7937"/>
<path d="M98.1113 33.6001C98.0018 33.633 97.8267 33.6658 97.5859 33.6987C97.356 33.7315 97.1152 33.7479 96.8634 33.7479C96.6226 33.7479 96.4037 33.7315 96.2066 33.6987C96.0205 33.6658 95.8618 33.6001 95.7304 33.5016C95.5991 33.4031 95.4951 33.2717 95.4185 33.1076C95.3528 32.9324 95.32 32.708 95.32 32.4343V28.7892C95.32 28.3404 95.205 28.0284 94.9751 27.8533C94.7562 27.6672 94.4826 27.5741 94.1542 27.5741C93.9352 27.5741 93.7273 27.6015 93.5302 27.6562C93.3332 27.711 93.1745 27.7766 93.054 27.8533V33.6001C92.9446 33.633 92.7694 33.6658 92.5286 33.6987C92.2987 33.7315 92.0579 33.7479 91.8062 33.7479C91.5653 33.7479 91.3464 33.7315 91.1494 33.6987C90.9633 33.6658 90.8046 33.6001 90.6732 33.5016C90.5418 33.4031 90.4379 33.2717 90.3612 33.1076C90.2955 32.9324 90.2627 32.708 90.2627 32.4343V22.911C90.3831 22.8891 90.5583 22.8617 90.7881 22.8289C91.029 22.7851 91.2698 22.7632 91.5106 22.7632C91.7514 22.7632 91.9649 22.7796 92.151 22.8124C92.348 22.8453 92.5122 22.911 92.6436 23.0095C92.7749 23.108 92.8734 23.2448 92.9391 23.42C93.0157 23.5842 93.054 23.8031 93.054 24.0768V25.6859C93.1963 25.6311 93.4098 25.5709 93.6944 25.5053C93.99 25.4286 94.3129 25.3903 94.6632 25.3903C95.7469 25.3903 96.5897 25.664 97.1918 26.2113C97.8048 26.7477 98.1113 27.5522 98.1113 28.625V33.6001Z" fill="#4F7937"/>
<path d="M80.4272 25.9647C80.3506 25.8443 80.2794 25.6801 80.2138 25.4721C80.1481 25.2641 80.1152 25.0452 80.1152 24.8153C80.1152 24.3884 80.2083 24.0819 80.3944 23.8958C80.5914 23.7097 80.8432 23.6167 81.1497 23.6167H88.3086C88.3853 23.7371 88.4564 23.9013 88.5221 24.1093C88.5878 24.3173 88.6206 24.5362 88.6206 24.7661C88.6206 25.193 88.5221 25.4995 88.3251 25.6856C88.139 25.8717 87.8927 25.9647 87.5862 25.9647H85.7636V33.5506C85.6432 33.5834 85.4516 33.6163 85.1889 33.6491C84.9371 33.6819 84.6854 33.6984 84.4336 33.6984C84.1818 33.6984 83.9574 33.6765 83.7604 33.6327C83.5743 33.5998 83.4156 33.5342 83.2842 33.4356C83.1529 33.3371 83.0543 33.2003 82.9887 33.0252C82.923 32.85 82.8902 32.6201 82.8902 32.3355V25.9647H80.4272Z" fill="#4F7937"/>
<path d="M210.732 48.8762C210.575 48.9047 210.34 48.9403 210.027 48.983C209.728 49.04 209.422 49.0685 209.109 49.0685C208.795 49.0685 208.51 49.0471 208.254 49.0044C208.012 48.9617 207.805 48.8762 207.635 48.7481C207.464 48.6199 207.328 48.449 207.229 48.2354C207.143 48.0075 207.1 47.7156 207.1 47.3595V34.9696C207.257 34.9411 207.485 34.9055 207.784 34.8628C208.097 34.8058 208.411 34.7773 208.724 34.7773C209.037 34.7773 209.315 34.7987 209.557 34.8414C209.813 34.8842 210.027 34.9696 210.198 35.0978C210.369 35.2259 210.497 35.404 210.582 35.6318C210.682 35.8454 210.732 36.1303 210.732 36.4863V48.8762Z" fill="#4F7937"/>
<path d="M204.93 43.7062C204.93 44.5892 204.795 45.3796 204.524 46.0774C204.254 46.761 203.869 47.3377 203.371 47.8077C202.886 48.2777 202.302 48.6337 201.619 48.8758C200.935 49.1179 200.173 49.2389 199.333 49.2389C198.493 49.2389 197.731 49.1108 197.047 48.8544C196.364 48.5981 195.773 48.2349 195.274 47.765C194.79 47.2808 194.413 46.6969 194.142 46.0133C193.872 45.3297 193.736 44.5607 193.736 43.7062C193.736 42.866 193.872 42.1041 194.142 41.4205C194.413 40.7369 194.79 40.1601 195.274 39.6902C195.773 39.206 196.364 38.8357 197.047 38.5793C197.731 38.323 198.493 38.1948 199.333 38.1948C200.173 38.1948 200.935 38.3301 201.619 38.6007C202.302 38.857 202.886 39.2273 203.371 39.7115C203.869 40.1815 204.254 40.7583 204.524 41.4418C204.795 42.1254 204.93 42.8802 204.93 43.7062ZM197.453 43.7062C197.453 44.5749 197.617 45.2443 197.945 45.7142C198.286 46.1699 198.756 46.3978 199.355 46.3978C199.953 46.3978 200.408 46.1628 200.722 45.6929C201.049 45.2229 201.213 44.5607 201.213 43.7062C201.213 42.8517 201.049 42.1966 200.722 41.7409C200.394 41.2709 199.931 41.036 199.333 41.036C198.735 41.036 198.272 41.2709 197.945 41.7409C197.617 42.1966 197.453 42.8517 197.453 43.7062Z" fill="#4F7937"/>
<path d="M192.08 43.7062C192.08 44.5892 191.945 45.3796 191.675 46.0774C191.404 46.761 191.019 47.3377 190.521 47.8077C190.037 48.2777 189.453 48.6337 188.769 48.8758C188.086 49.1179 187.324 49.2389 186.484 49.2389C185.643 49.2389 184.881 49.1108 184.198 48.8544C183.514 48.5981 182.923 48.2349 182.425 47.765C181.941 47.2808 181.563 46.6969 181.293 46.0133C181.022 45.3297 180.887 44.5607 180.887 43.7062C180.887 42.866 181.022 42.1041 181.293 41.4205C181.563 40.7369 181.941 40.1601 182.425 39.6902C182.923 39.206 183.514 38.8357 184.198 38.5793C184.881 38.323 185.643 38.1948 186.484 38.1948C187.324 38.1948 188.086 38.3301 188.769 38.6007C189.453 38.857 190.037 39.2273 190.521 39.7115C191.019 40.1815 191.404 40.7583 191.675 41.4418C191.945 42.1254 192.08 42.8802 192.08 43.7062ZM184.604 43.7062C184.604 44.5749 184.767 45.2443 185.095 45.7142C185.437 46.1699 185.907 46.3978 186.505 46.3978C187.103 46.3978 187.559 46.1628 187.872 45.6929C188.2 45.2229 188.363 44.5607 188.363 43.7062C188.363 42.8517 188.2 42.1966 187.872 41.7409C187.545 41.2709 187.082 41.036 186.484 41.036C185.885 41.036 185.423 41.2709 185.095 41.7409C184.767 42.1966 184.604 42.8517 184.604 43.7062Z" fill="#4F7937"/>
<path d="M178.758 48.8762C178.616 48.9189 178.388 48.9617 178.075 49.0044C177.776 49.0471 177.462 49.0685 177.135 49.0685C176.822 49.0685 176.537 49.0471 176.28 49.0044C176.038 48.9617 175.832 48.8762 175.661 48.7481C175.49 48.6199 175.355 48.449 175.255 48.2354C175.17 48.0075 175.127 47.7156 175.127 47.3595V42.6172C175.127 42.0333 174.977 41.6274 174.678 41.3995C174.393 41.1574 174.037 41.0364 173.61 41.0364C173.325 41.0364 173.055 41.072 172.798 41.1432C172.542 41.2144 172.336 41.2999 172.179 41.3995V48.8762C172.036 48.9189 171.809 48.9617 171.495 49.0044C171.196 49.0471 170.883 49.0685 170.555 49.0685C170.242 49.0685 169.957 49.0471 169.701 49.0044C169.459 48.9617 169.252 48.8762 169.081 48.7481C168.911 48.6199 168.775 48.449 168.676 48.2354C168.59 48.0075 168.547 47.7156 168.547 47.3595V34.9696C168.704 34.9411 168.932 34.9055 169.231 34.8628C169.544 34.8058 169.858 34.7773 170.171 34.7773C170.484 34.7773 170.762 34.7987 171.004 34.8414C171.26 34.8842 171.474 34.9696 171.645 35.0978C171.816 35.2259 171.944 35.404 172.029 35.6318C172.129 35.8454 172.179 36.1303 172.179 36.4863V38.5798C172.364 38.5086 172.642 38.4302 173.012 38.3448C173.397 38.2451 173.817 38.1953 174.272 38.1953C175.682 38.1953 176.779 38.5513 177.562 39.2634C178.36 39.9612 178.758 41.0079 178.758 42.4036V48.8762Z" fill="#4F7937"/>
<path d="M163.573 41.0573C163.216 41.0573 162.875 41.1143 162.547 41.2282C162.234 41.3422 161.956 41.513 161.714 41.7409C161.486 41.9545 161.301 42.2251 161.159 42.5527C161.016 42.8802 160.945 43.2647 160.945 43.7062C160.945 44.5892 161.194 45.2514 161.693 45.6929C162.205 46.1343 162.825 46.3551 163.551 46.3551C163.978 46.3551 164.349 46.3052 164.662 46.2056C164.975 46.1059 165.253 45.9991 165.495 45.8851C165.78 46.0845 165.994 46.3052 166.136 46.5473C166.278 46.7752 166.35 47.0529 166.35 47.3805C166.35 47.9644 166.072 48.4201 165.516 48.7476C164.961 49.0609 164.192 49.2176 163.209 49.2176C162.312 49.2176 161.5 49.0894 160.774 48.8331C160.048 48.5625 159.421 48.1922 158.894 47.7222C158.382 47.238 157.983 46.6613 157.698 45.9919C157.413 45.3226 157.271 44.582 157.271 43.7703C157.271 42.8304 157.42 42.0115 157.719 41.3137C158.033 40.6016 158.453 40.0177 158.98 39.562C159.507 39.1063 160.112 38.7645 160.795 38.5366C161.493 38.3088 162.227 38.1948 162.996 38.1948C164.021 38.1948 164.812 38.38 165.367 38.7502C165.922 39.1205 166.2 39.5976 166.2 40.1815C166.2 40.4521 166.136 40.7084 166.008 40.9505C165.88 41.1784 165.73 41.3778 165.559 41.5486C165.317 41.4347 165.025 41.3279 164.683 41.2282C164.342 41.1143 163.971 41.0573 163.573 41.0573Z" fill="#4F7937"/>
<path d="M149.53 43.7491C148.903 43.5355 148.334 43.3219 147.821 43.1083C147.308 42.8804 146.867 42.6098 146.497 42.2965C146.126 41.9832 145.834 41.6129 145.621 41.1857C145.421 40.7442 145.322 40.2102 145.322 39.5836C145.322 38.373 145.785 37.4046 146.71 36.6783C147.65 35.952 148.96 35.5889 150.641 35.5889C151.253 35.5889 151.823 35.6316 152.35 35.717C152.877 35.8025 153.325 35.9378 153.696 36.1229C154.08 36.2938 154.379 36.5217 154.593 36.8065C154.806 37.0771 154.913 37.3975 154.913 37.7678C154.913 38.1381 154.828 38.4585 154.657 38.7291C154.486 38.9854 154.28 39.2062 154.037 39.3913C153.724 39.1919 153.304 39.021 152.777 38.8786C152.25 38.722 151.673 38.6436 151.047 38.6436C150.406 38.6436 149.936 38.7362 149.637 38.9213C149.338 39.0922 149.188 39.313 149.188 39.5836C149.188 39.7972 149.281 39.9752 149.466 40.1176C149.651 40.2458 149.929 40.3668 150.299 40.4808L151.431 40.8439C152.77 41.2711 153.795 41.8194 154.507 42.4888C155.234 43.1439 155.597 44.0411 155.597 45.1804C155.597 46.3909 155.12 47.3735 154.166 48.1283C153.211 48.8689 151.809 49.2391 149.957 49.2391C149.302 49.2391 148.69 49.1822 148.12 49.0683C147.565 48.9686 147.073 48.819 146.646 48.6196C146.233 48.406 145.906 48.1497 145.664 47.8506C145.436 47.5373 145.322 47.1813 145.322 46.7825C145.322 46.3695 145.443 46.0206 145.685 45.7358C145.927 45.4367 146.19 45.2089 146.475 45.0522C146.874 45.3655 147.358 45.6361 147.928 45.864C148.512 46.0918 149.146 46.2058 149.829 46.2058C150.527 46.2058 151.018 46.0989 151.303 45.8853C151.588 45.6717 151.73 45.4225 151.73 45.1377C151.73 44.8528 151.616 44.6392 151.389 44.4968C151.161 44.3401 150.84 44.1906 150.427 44.0482L149.53 43.7491Z" fill="#4F7937"/>
<path d="M138.466 45.4195C138.466 45.7898 138.58 46.0533 138.808 46.2099C139.05 46.3666 139.385 46.4449 139.812 46.4449C140.026 46.4449 140.246 46.4307 140.474 46.4022C140.702 46.3594 140.901 46.3096 141.072 46.2526C141.2 46.4093 141.307 46.5873 141.393 46.7867C141.492 46.9718 141.542 47.1997 141.542 47.4703C141.542 48.0114 141.336 48.4529 140.923 48.7947C140.524 49.1365 139.812 49.3074 138.787 49.3074C137.533 49.3074 136.565 49.0226 135.881 48.4529C135.212 47.8833 134.877 46.9576 134.877 45.6759V36.533C135.034 36.4902 135.255 36.4475 135.54 36.4048C135.839 36.3478 136.152 36.3193 136.479 36.3193C137.106 36.3193 137.59 36.4333 137.932 36.6611C138.288 36.8747 138.466 37.3376 138.466 38.0497V39.4168H141.265C141.35 39.5735 141.428 39.7728 141.5 40.015C141.585 40.2428 141.628 40.4992 141.628 40.784C141.628 41.2824 141.514 41.6456 141.286 41.8734C141.072 42.0871 140.78 42.1939 140.41 42.1939H138.466V45.4195Z" fill="#4F7937"/>
<path d="M132.745 45.8899C132.745 46.9722 132.339 47.8196 131.527 48.432C130.716 49.0443 129.519 49.3505 127.939 49.3505C127.341 49.3505 126.785 49.3078 126.272 49.2223C125.76 49.1369 125.318 49.0087 124.948 48.8378C124.592 48.6527 124.307 48.4248 124.093 48.1543C123.894 47.8837 123.794 47.5632 123.794 47.193C123.794 46.8512 123.866 46.5663 124.008 46.3385C124.15 46.0964 124.321 45.897 124.521 45.7404C124.934 45.9682 125.404 46.1747 125.931 46.3598C126.472 46.5307 127.091 46.6162 127.789 46.6162C128.231 46.6162 128.565 46.5521 128.793 46.4239C129.035 46.2958 129.156 46.1249 129.156 45.9112C129.156 45.7119 129.071 45.5552 128.9 45.4413C128.729 45.3274 128.444 45.2348 128.045 45.1636L127.405 45.0354C126.166 44.7933 125.24 44.4159 124.628 43.9032C124.029 43.3763 123.73 42.6286 123.73 41.6602C123.73 41.1333 123.844 40.6562 124.072 40.229C124.3 39.8017 124.62 39.4457 125.033 39.1609C125.446 38.876 125.938 38.6553 126.507 38.4987C127.091 38.342 127.732 38.2637 128.43 38.2637C128.957 38.2637 129.448 38.3064 129.904 38.3918C130.374 38.4631 130.78 38.577 131.122 38.7336C131.463 38.8903 131.734 39.0968 131.933 39.3531C132.133 39.5952 132.232 39.8872 132.232 40.229C132.232 40.5565 132.168 40.8413 132.04 41.0834C131.926 41.3113 131.777 41.5036 131.592 41.6602C131.478 41.589 131.307 41.5178 131.079 41.4466C130.851 41.3612 130.602 41.2899 130.331 41.233C130.061 41.1618 129.783 41.1048 129.498 41.0621C129.227 41.0194 128.978 40.998 128.75 40.998C128.28 40.998 127.917 41.055 127.661 41.1689C127.405 41.2686 127.276 41.4324 127.276 41.6602C127.276 41.8169 127.348 41.945 127.49 42.0447C127.632 42.1444 127.903 42.237 128.302 42.3224L128.964 42.472C130.331 42.7853 131.3 43.2196 131.869 43.7751C132.453 44.3162 132.745 45.0212 132.745 45.8899Z" fill="#4F7937"/>
<path d="M117.419 49.3288C116.579 49.3288 115.795 49.2149 115.069 48.987C114.357 48.7449 113.73 48.3889 113.189 47.9189C112.662 47.4489 112.242 46.8579 111.929 46.1459C111.63 45.4338 111.48 44.6007 111.48 43.6465C111.48 42.7066 111.63 41.902 111.929 41.2326C112.242 40.549 112.648 39.9936 113.147 39.5664C113.645 39.1249 114.215 38.8045 114.856 38.6051C115.496 38.3915 116.151 38.2847 116.821 38.2847C117.576 38.2847 118.259 38.3986 118.872 38.6265C119.498 38.8543 120.032 39.1676 120.474 39.5664C120.929 39.9651 121.278 40.4422 121.52 40.9976C121.777 41.553 121.905 42.1583 121.905 42.8134C121.905 43.2976 121.77 43.6679 121.499 43.9242C121.229 44.1806 120.851 44.3443 120.367 44.4155L115.091 45.2059C115.247 45.6759 115.568 46.0319 116.052 46.274C116.536 46.5019 117.091 46.6158 117.718 46.6158C118.302 46.6158 118.85 46.5446 119.363 46.4022C119.89 46.2456 120.317 46.0675 120.645 45.8682C120.872 46.0106 121.065 46.2099 121.221 46.4663C121.378 46.7226 121.456 46.9932 121.456 47.278C121.456 47.9189 121.157 48.396 120.559 48.7093C120.103 48.9514 119.591 49.1152 119.021 49.2006C118.451 49.2861 117.917 49.3288 117.419 49.3288ZM116.821 40.9335C116.479 40.9335 116.18 40.9905 115.924 41.1044C115.682 41.2184 115.482 41.3679 115.325 41.553C115.169 41.7239 115.048 41.9233 114.962 42.1512C114.891 42.3648 114.848 42.5855 114.834 42.8134L118.487 42.2153C118.444 41.9304 118.288 41.6456 118.017 41.3608C117.747 41.076 117.348 40.9335 116.821 40.9335Z" fill="#4F7937"/>
<path d="M106.84 48.9658C106.698 49.0085 106.47 49.0512 106.157 49.0939C105.858 49.1367 105.544 49.158 105.217 49.158C104.904 49.158 104.619 49.1367 104.362 49.0939C104.12 49.0512 103.914 48.9658 103.743 48.8376C103.572 48.7094 103.437 48.5385 103.337 48.3249C103.252 48.097 103.209 47.8051 103.209 47.4491V41.0405C103.209 40.7129 103.266 40.4352 103.38 40.2074C103.508 39.9653 103.686 39.7516 103.914 39.5665C104.142 39.3814 104.419 39.2176 104.747 39.0752C105.089 38.9185 105.452 38.7832 105.836 38.6693C106.221 38.5554 106.62 38.4699 107.033 38.413C107.446 38.3418 107.859 38.3062 108.272 38.3062C108.955 38.3062 109.496 38.4414 109.895 38.712C110.294 38.9684 110.493 39.3956 110.493 39.9937C110.493 40.1931 110.465 40.3925 110.408 40.5919C110.351 40.777 110.28 40.9479 110.194 41.1046C109.895 41.1046 109.589 41.1188 109.276 41.1473C108.962 41.1758 108.656 41.2185 108.357 41.2755C108.058 41.3324 107.773 41.3965 107.503 41.4677C107.246 41.5247 107.026 41.5959 106.84 41.6813V48.9658Z" fill="#4F7937"/>
<path d="M101.103 43.796C101.103 44.679 100.968 45.4694 100.698 46.1672C100.427 46.8508 100.042 47.4276 99.5444 47.8975C99.0602 48.3675 98.4763 48.7235 97.7927 48.9656C97.1092 49.2077 96.3473 49.3288 95.507 49.3288C94.6668 49.3288 93.9049 49.2006 93.2213 48.9443C92.5377 48.6879 91.9467 48.3248 91.4482 47.8548C90.964 47.3706 90.5867 46.7867 90.3161 46.1031C90.0455 45.4196 89.9102 44.6505 89.9102 43.796C89.9102 42.9558 90.0455 42.1939 90.3161 41.5103C90.5867 40.8267 90.964 40.25 91.4482 39.78C91.9467 39.2958 92.5377 38.9255 93.2213 38.6692C93.9049 38.4128 94.6668 38.2847 95.507 38.2847C96.3473 38.2847 97.1092 38.42 97.7927 38.6905C98.4763 38.9469 99.0602 39.3172 99.5444 39.8014C100.042 40.2713 100.427 40.8481 100.698 41.5317C100.968 42.2153 101.103 42.9701 101.103 43.796ZM93.6272 43.796C93.6272 44.6648 93.7909 45.3341 94.1185 45.8041C94.4603 46.2598 94.9302 46.4877 95.5284 46.4877C96.1265 46.4877 96.5822 46.2527 96.8955 45.7827C97.2231 45.3127 97.3869 44.6505 97.3869 43.796C97.3869 42.9416 97.2231 42.2865 96.8955 41.8307C96.568 41.3608 96.1052 41.1258 95.507 41.1258C94.9089 41.1258 94.446 41.3608 94.1185 41.8307C93.7909 42.2865 93.6272 42.9416 93.6272 43.796Z" fill="#4F7937"/>
<path d="M88.5338 36.042C88.6335 36.1986 88.7189 36.4123 88.7901 36.6829C88.8756 36.9392 88.9183 37.2098 88.9183 37.4946C88.9183 38.05 88.7972 38.4488 88.5551 38.6909C88.3273 38.9187 88.014 39.0327 87.6152 39.0327H83.1292V41.4466H87.8075C87.9214 41.6032 88.014 41.8097 88.0852 42.0661C88.1706 42.3224 88.2134 42.593 88.2134 42.8778C88.2134 43.419 88.0923 43.8106 87.8502 44.0527C87.6223 44.2806 87.309 44.3945 86.9103 44.3945H83.1719V48.9019C83.0153 48.9446 82.7661 48.9873 82.4243 49.0301C82.0967 49.0728 81.7692 49.0941 81.4416 49.0941C81.1141 49.0941 80.8221 49.0657 80.5658 49.0087C80.3237 48.966 80.1172 48.8805 79.9463 48.7523C79.7754 48.6242 79.6472 48.4462 79.5618 48.2183C79.4763 47.9904 79.4336 47.6914 79.4336 47.3211V38.0287C79.4336 37.4163 79.6116 36.9321 79.9676 36.576C80.3237 36.22 80.8079 36.042 81.4203 36.042H88.5338Z" fill="#4F7937"/>
</svg>
