<svg width="35" height="35" viewBox="0 0 35 35" fill="none" xmlns="http://www.w3.org/2000/svg">
<g id="youtube-icon">
<circle id="Ellipse 32" cx="17.5" cy="17.5" r="17.5" fill="white"/>
<path id="youtube" d="M29.6726 11.6599C29.3945 10.6129 28.5752 9.78833 27.535 9.50849C25.6495 9 18.0889 9 18.0889 9C18.0889 9 10.5283 9 8.64279 9.50849C7.60256 9.78837 6.78328 10.6129 6.50522 11.6599C6 13.5577 6 17.5172 6 17.5172C6 17.5172 6 21.4767 6.50522 23.3744C6.78328 24.4214 7.60256 25.2117 8.64279 25.4915C10.5283 26 18.0889 26 18.0889 26C18.0889 26 25.6495 26 27.535 25.4915C28.5752 25.2117 29.3945 24.4214 29.6726 23.3744C30.1778 21.4767 30.1778 17.5172 30.1778 17.5172C30.1778 17.5172 30.1778 13.5577 29.6726 11.6599ZM15.6162 21.1121V13.9223L21.9353 17.5173L15.6162 21.1121Z" fill="#4F7937"/>
</g>
</svg>
