<svg width="426" height="327" viewBox="0 0 426 327" fill="none" xmlns="http://www.w3.org/2000/svg">
<path d="M72.6875 102.014C48.7385 109.447 7.15165 135.954 3.01567 163.872C-0.964404 190.738 16.2576 204.366 43.0607 193.173C77.867 178.639 101.181 99.084 49.2465 99.084" stroke="black" stroke-width="3" stroke-linecap="round"/>
<path d="M125.43 84.4331C103.302 105.284 34.6892 181.175 80.1757 212.545C97.397 224.421 146.234 218.947 157.01 201.312C174.519 172.662 166.941 147.92 143.662 126.757C139.613 123.077 121.905 103.203 116.639 113.734" stroke="black" stroke-width="3" stroke-linecap="round"/>
<path d="M184.032 324.703C181.831 277.394 165.379 232.052 160.916 185.197C158.304 157.766 164.339 134.033 193.961 124.641C218.982 116.707 223.855 128.655 214.635 152.803C202.413 184.812 178.697 197.556 148.87 207.498" stroke="black" stroke-width="3" stroke-linecap="round"/>
<path d="M321.747 69.7827C303.499 88.6644 268.358 113.941 269.005 143.687C269.25 154.95 276.43 155.967 283.167 163.547C292.729 174.303 279.556 189.638 270.633 195.29C259.862 202.111 247.283 205.686 235.146 209.126C216.358 214.452 228.465 212.337 239.704 213.359" stroke="black" stroke-width="3" stroke-linecap="round"/>
<path d="M365.699 175.267C368.735 163.125 381.37 198.455 383.28 201.638" stroke="black" stroke-width="3" stroke-linecap="round"/>
<path d="M418.441 5.31982C410.564 44.4234 401.49 83.4764 397.117 123.176C395.963 133.649 392.396 164.967 392.396 154.431C392.396 127.145 400.861 101.127 400.861 73.6894C400.861 55.19 405.929 39.2235 406.721 21.2727C407.843 -4.16933 406.485 41.7661 406.07 45.0393C403.679 63.8754 400.528 82.169 392.07 99.0837" stroke="black" stroke-width="3" stroke-linecap="round"/>
<path d="M377.42 184.058C376.629 196.704 365.346 176.849 376.118 194.801C378.971 199.556 389.14 224.016 389.14 207.499" stroke="black" stroke-width="3" stroke-linecap="round"/>
<path d="M424.302 2.38965C419.26 42.7271 414.709 85.0627 406.07 124.804C405.681 126.591 400.861 138.772 400.861 133.594C400.861 108.823 407.074 84.7279 409.488 60.1782C410.931 45.5144 412.581 30.8103 412.581 16.0636C412.581 13.1936 415.531 1.45161 416.488 11.3428C419.076 38.0849 402.453 67.1952 397.28 93.0607C394.749 105.716 395.001 118.493 395.001 131.315" stroke="black" stroke-width="3" stroke-linecap="round"/>
</svg>
