<svg width="80" height="80" viewBox="0 0 80 80" fill="none" xmlns="http://www.w3.org/2000/svg">
<path d="M54.9016 61.2353L54.9025 61.2345L74.0235 43.3845C74.0243 43.3837 74.0251 43.3829 74.0259 43.3822C74.9699 42.5061 75.5 41.2806 75.5 40C75.5 38.7194 74.9699 37.4939 74.0259 36.6178C74.0251 36.6171 74.0243 36.6163 74.0235 36.6155L54.9025 18.7655L54.9016 18.7647C53.5372 17.4931 51.5506 17.1471 49.8369 17.8786C48.1236 18.6099 47 20.2896 47 22.1462V30.0982H10.25C7.08728 30.0982 4.5 32.6307 4.5 35.7991V44.2009C4.5 47.3693 7.08728 49.9018 10.25 49.9018H47V57.8538C47 59.7271 48.1269 61.3916 49.8369 62.1214C51.5506 62.8529 53.5372 62.5069 54.9016 61.2353Z" fill="#35311E" stroke="white" stroke-width="3"/>
</svg>
